name ./resultDataOpenSim/trcMotMarkerGrf/sub10/grf-04-07.mot
datacolumns 19
datarows 22
range 1.68400000 1.76800000
endheader

                time	     ground_force_vx	     ground_force_vy	     ground_force_vz	     ground_force_px	     ground_force_py	     ground_force_pz	   l_ground_force_vx	   l_ground_force_vy	   l_ground_force_vz	   l_ground_force_px	   l_ground_force_py	   l_ground_force_pz	     ground_torque_x	     ground_torque_y	     ground_torque_z	   l_ground_torque_x	   l_ground_torque_y	   l_ground_torque_z	
          1.68400000	         11.56345288	        438.71731030	        -14.02929529	          0.75157323	          0.00000000	          0.06147870	          0.00000000	          0.00000000	          0.00000000	          0.00000000	          0.00000000	          0.00000000	          0.00000000	          2.56514340	          0.00000000	          0.00000000	          0.00000000	          0.00000000	
          1.68800000	         12.71956973	        443.83674300	        -15.68687928	          0.75263933	          0.00000000	          0.06153557	          0.00000000	          0.00000000	          0.00000000	          0.00000000	          0.00000000	          0.00000000	          0.00000000	          2.69933663	          0.00000000	          0.00000000	          0.00000000	          0.00000000	
          1.69200000	         14.50479471	        449.29208141	        -17.33027130	          0.75369596	          0.00000000	          0.06157594	          0.00000000	          0.00000000	          0.00000000	          0.00000000	          0.00000000	          0.00000000	          0.00000000	          2.81528277	          0.00000000	          0.00000000	          0.00000000	          0.00000000	
          1.69600000	         16.85676622	        455.13511354	        -18.76421382	          0.75477412	          0.00000000	          0.06158040	          0.00000000	          0.00000000	          0.00000000	          0.00000000	          0.00000000	          0.00000000	          0.00000000	          2.89627368	          0.00000000	          0.00000000	          0.00000000	          0.00000000	
          1.70000000	         19.54882956	        461.40779858	        -19.85230934	          0.75591324	          0.00000000	          0.06154071	          0.00000000	          0.00000000	          0.00000000	          0.00000000	          0.00000000	          0.00000000	          0.00000000	          2.93547873	          0.00000000	          0.00000000	          0.00000000	          0.00000000	
          1.70400000	         22.25856529	        468.13816085	        -20.53301725	          0.75716628	          0.00000000	          0.06144924	          0.00000000	          0.00000000	          0.00000000	          0.00000000	          0.00000000	          0.00000000	          0.00000000	          2.93658073	          0.00000000	          0.00000000	          0.00000000	          0.00000000	
          1.70800000	         24.65815871	        475.33946278	        -20.82481210	          0.75854933	          0.00000000	          0.06130822	          0.00000000	          0.00000000	          0.00000000	          0.00000000	          0.00000000	          0.00000000	          0.00000000	          2.91157923	          0.00000000	          0.00000000	          0.00000000	          0.00000000	
          1.71200000	         26.50132160	        483.01298885	        -20.82017702	          0.76008096	          0.00000000	          0.06112633	          0.00000000	          0.00000000	          0.00000000	          0.00000000	          0.00000000	          0.00000000	          0.00000000	          2.87680698	          0.00000000	          0.00000000	          0.00000000	          0.00000000	
          1.71600000	         27.68677879	        491.15322674	        -20.66419506	          0.76175711	          0.00000000	          0.06091400	          0.00000000	          0.00000000	          0.00000000	          0.00000000	          0.00000000	          0.00000000	          0.00000000	          2.84867865	          0.00000000	          0.00000000	          0.00000000	          0.00000000	
          1.72000000	         28.28261944	        499.74791872	        -20.51960946	          0.76354651	          0.00000000	          0.06068952	          0.00000000	          0.00000000	          0.00000000	          0.00000000	          0.00000000	          0.00000000	          0.00000000	          2.84038186	          0.00000000	          0.00000000	          0.00000000	          0.00000000	
          1.72400000	         28.50320630	        508.78213204	        -20.52961059	          0.76539796	          0.00000000	          0.06047205	          0.00000000	          0.00000000	          0.00000000	          0.00000000	          0.00000000	          0.00000000	          0.00000000	          2.85997360	          0.00000000	          0.00000000	          0.00000000	          0.00000000	
          1.72800000	         28.64668785	        518.25191068	        -20.79147991	          0.76726599	          0.00000000	          0.06027169	          0.00000000	          0.00000000	          0.00000000	          0.00000000	          0.00000000	          0.00000000	          0.00000000	          2.90971630	          0.00000000	          0.00000000	          0.00000000	          0.00000000	
          1.73200000	         29.01758709	        528.16627603	        -21.34761524	          0.76911314	          0.00000000	          0.06009157	          0.00000000	          0.00000000	          0.00000000	          0.00000000	          0.00000000	          0.00000000	          0.00000000	          2.98630570	          0.00000000	          0.00000000	          0.00000000	          0.00000000	
          1.73600000	         29.85640129	        538.53384251	        -22.19137918	          0.77090677	          0.00000000	          0.05993332	          0.00000000	          0.00000000	          0.00000000	          0.00000000	          0.00000000	          0.00000000	          0.00000000	          3.08181240	          0.00000000	          0.00000000	          0.00000000	          0.00000000	
          1.74000000	         31.28675027	        549.35388194	        -23.28068831	          0.77262541	          0.00000000	          0.05979590	          0.00000000	          0.00000000	          0.00000000	          0.00000000	          0.00000000	          0.00000000	          0.00000000	          3.18530875	          0.00000000	          0.00000000	          0.00000000	          0.00000000	
          1.74400000	         33.29107744	        560.61023322	        -24.55194469	          0.77426255	          0.00000000	          0.05967176	          0.00000000	          0.00000000	          0.00000000	          0.00000000	          0.00000000	          0.00000000	          0.00000000	          3.28503599	          0.00000000	          0.00000000	          0.00000000	          0.00000000	
          1.74800000	         35.72628065	        572.26352842	        -25.93088025	          0.77582416	          0.00000000	          0.05955279	          0.00000000	          0.00000000	          0.00000000	          0.00000000	          0.00000000	          0.00000000	          0.00000000	          3.37066051	          0.00000000	          0.00000000	          0.00000000	          0.00000000	
          1.75200000	         38.37553734	        584.25549613	        -27.34331097	          0.77732432	          0.00000000	          0.05943739	          0.00000000	          0.00000000	          0.00000000	          0.00000000	          0.00000000	          0.00000000	          0.00000000	          3.43496226	          0.00000000	          0.00000000	          0.00000000	          0.00000000	
          1.75600000	         41.01902970	        596.51908462	        -28.72856978	          0.77878011	          0.00000000	          0.05932789	          0.00000000	          0.00000000	          0.00000000	          0.00000000	          0.00000000	          0.00000000	          0.00000000	          3.47444240	          0.00000000	          0.00000000	          0.00000000	          0.00000000	
          1.76000000	         43.50254252	        608.97427142	        -30.05207029	          0.78019985	          0.00000000	          0.05922450	          0.00000000	          0.00000000	          0.00000000	          0.00000000	          0.00000000	          0.00000000	          0.00000000	          3.48882378	          0.00000000	          0.00000000	          0.00000000	          0.00000000	
          1.76400000	         45.78297303	        621.52560089	        -31.31197637	          0.78157432	          0.00000000	          0.05912585	          0.00000000	          0.00000000	          0.00000000	          0.00000000	          0.00000000	          0.00000000	          0.00000000	          3.47995422	          0.00000000	          0.00000000	          0.00000000	          0.00000000	
          1.76800000	         47.93947353	        634.09162648	        -32.53799755	          0.78288470	          0.00000000	          0.05903347	          0.00000000	          0.00000000	          0.00000000	          0.00000000	          0.00000000	          0.00000000	          0.00000000	          3.45083951	          0.00000000	          0.00000000	          0.00000000	          0.00000000	
